<?xml version="1.0" encoding="UTF-8"?>
<svg version="1.1" xmlns="http://www.w3.org/2000/svg" width="253" height="338">
<path d="M0 0 C0.30548306 8.45100521 0.53426863 16.89958993 0.67355824 25.35480499 C0.74052265 29.28413547 0.83078118 33.20960927 0.98071289 37.13671875 C1.73632631 57.47219781 0.51479801 71.97888284 -11.30574036 89.38522339 C-14.25493255 93.93675644 -16.62544112 98.78634313 -19.0625 103.625 C-22.86311875 110.97121676 -26.75834841 118.25596596 -30.75 125.5 C-36.02761111 135.08688539 -41.04846931 144.79508226 -46.04193115 154.53161621 C-50.21535529 162.66480712 -54.44860274 170.75058017 -58.875 178.75 C-67.2916822 193.96614627 -75.0946995 209.51416585 -83 225 C-80.31857366 226.34071317 -78.27783713 226.11248315 -75.27539062 226.09765625 C-73.47080383 226.09270142 -73.47080383 226.09270142 -71.62976074 226.08764648 C-69.66287292 226.07519897 -69.66287292 226.07519897 -67.65625 226.0625 C-66.289756 226.05808888 -64.92325996 226.05427374 -63.5567627 226.05102539 C-58.47907171 226.03767132 -53.40144056 226.01383382 -48.3237915 225.98962402 C-44.05499079 225.96959347 -39.78621613 225.95406212 -35.51737976 225.94406128 C-33.54269628 225.93773683 -31.56803583 225.92516664 -29.59338379 225.91235352 C-19.65416806 225.88616154 -9.9744033 226.44586648 0 227 C0 263.63 0 300.26 0 338 C-3.9942916 336.0028542 -5.92124102 334.15206277 -9 331 C-9.99 330.175 -10.98 329.35 -12 328.5 C-14.84824012 326.12646656 -17.49138978 323.72995818 -20 321 C-20 320.34 -20 319.68 -20 319 C-20.556875 318.79375 -21.11375 318.5875 -21.6875 318.375 C-24.85990745 316.48870368 -26.67742698 313.84515195 -29 311 C-30.32901064 309.99426222 -31.66073801 308.99204592 -33 308 C-33 307.34 -33 306.68 -33 306 C-33.57234375 305.76667969 -34.1446875 305.53335937 -34.734375 305.29296875 C-37.53936214 303.69219161 -39.15811727 301.76933349 -41.25 299.3125 C-43.76589376 296.36045678 -46.30951417 293.69490423 -49.27539062 291.20874023 C-55.20288559 286.05589252 -60.67290797 280.43768848 -66.20572662 274.86943817 C-68.23814743 272.8241305 -70.27378382 270.78207133 -72.3102417 268.74078369 C-76.62632664 264.4133397 -80.93844405 260.08195574 -85.25 255.75 C-90.26307633 250.71328889 -95.27778387 245.67822428 -100.29671478 240.6473465 C-102.29958163 238.63801057 -104.29940815 236.62568212 -106.2991333 234.61322021 C-107.52642259 233.38229866 -108.75385235 232.15151714 -109.98144531 230.92089844 C-110.53424164 230.36293579 -111.08703796 229.80497314 -111.65658569 229.23010254 C-113.80965113 227.07674274 -115.91874636 225.05967282 -118.37615967 223.25494385 C-118.91202698 222.84081238 -119.44789429 222.42668091 -120 222 C-120 221.34 -120 220.68 -120 220 C-120.556875 219.773125 -121.11375 219.54625 -121.6875 219.3125 C-124.65253447 217.6296426 -126.65353689 215.46378626 -129 213 C-129.763125 212.278125 -130.52625 211.55625 -131.3125 210.8125 C-133 209 -133 209 -133 207 C-133.5862616 206.73741898 -134.17252319 206.47483795 -134.77655029 206.20429993 C-137.11267443 204.9389715 -138.68359193 203.58898591 -140.57519531 201.73120117 C-141.59580048 200.7345771 -141.59580048 200.7345771 -142.63702393 199.71781921 C-143.36008728 199.00011856 -144.08315063 198.28241791 -144.828125 197.54296875 C-145.95163361 196.43300285 -145.95163361 196.43300285 -147.09783936 195.3006134 C-148.67732376 193.73562261 -150.25402311 192.16781666 -151.828125 190.59741211 C-154.24283282 188.19463178 -156.67555661 185.81113514 -159.109375 183.42773438 C-160.64177144 181.90479853 -162.1730599 180.38074684 -163.703125 178.85546875 C-164.43428528 178.14384079 -165.16544556 177.43221283 -165.91876221 176.69902039 C-166.92045441 175.68821159 -166.92045441 175.68821159 -167.94238281 174.65698242 C-168.53432434 174.07011154 -169.12626587 173.48324066 -169.73614502 172.87858582 C-171.43902569 170.34743507 -171.50588992 168.9969661 -171 166 C-169.41897583 163.804245 -169.41897583 163.804245 -167.17626953 161.5769043 C-166.34185333 160.73641037 -165.50743713 159.89591644 -164.6477356 159.029953 C-163.27909866 157.69061455 -163.27909866 157.69061455 -161.8828125 156.32421875 C-160.95532196 155.3990596 -160.02783142 154.47390045 -159.07223511 153.52070618 C-157.11087506 151.56550648 -155.14154159 149.61885328 -153.16552734 147.6784668 C-150.62911036 145.18741579 -148.10830257 142.68127308 -145.59262276 140.16929913 C-143.19527772 137.77743784 -140.78907717 135.39460834 -138.3828125 133.01171875 C-137.47443634 132.10870529 -136.56606018 131.20569183 -135.63015747 130.27531433 C-134.78943695 129.45058121 -133.94871643 128.62584808 -133.08251953 127.77612305 C-132.34083527 127.04507858 -131.599151 126.31403412 -130.83499146 125.56083679 C-129 124 -129 124 -127 124 C-126.505 122.515 -126.505 122.515 -126 121 C-124.58203125 119.640625 -124.58203125 119.640625 -122.8125 118.25 C-120.26641427 116.15505369 -118.09160183 114.04825883 -116 111.5 C-113.51408264 108.49038271 -110.83782343 106.01003434 -107.80859375 103.5546875 C-105.40926794 101.49220009 -103.23039505 99.24470853 -101 97 C-100.0068653 96.00229018 -99.01368394 95.0046268 -98.02046204 94.00700378 C-96.90724293 92.88776013 -95.79406038 91.76848013 -94.6809082 90.64916992 C-88.47506005 84.41074487 -82.26420175 78.17733307 -76.05042744 71.94680309 C-72.29521539 68.18110503 -68.54191564 64.41353918 -64.79272461 60.6418457 C-61.16033856 56.98780454 -57.52315504 53.33860398 -53.88252831 49.69277382 C-52.49524205 48.30178367 -51.1097213 46.90903047 -49.72597694 45.51451683 C-47.79887268 43.57299192 -45.86569962 41.63771752 -43.9309082 39.70385742 C-43.06983208 38.83199547 -43.06983208 38.83199547 -42.19136047 37.94252014 C-38.22810981 34 -38.22810981 34 -36 34 C-35.34 32.68 -34.68 31.36 -34 30 C-33.34 30 -32.68 30 -32 30 C-31.731875 29.360625 -31.46375 28.72125 -31.1875 28.0625 C-30 26 -30 26 -27 25 C-26.67 24.01 -26.34 23.02 -26 22 C-24.29296875 20.3515625 -24.29296875 20.3515625 -22.1875 18.625 C-19.85417994 16.65096993 -17.91541723 14.89427153 -16 12.5 C-13.58950029 9.48687536 -10.83812158 7.139059 -7.90234375 4.6484375 C-5.99100862 3.05753257 -5.99100862 3.05753257 -4.44140625 1.2890625 C-3 0 -3 0 0 0 Z " fill="#53BEE4" transform="translate(171,0)"/>
<path d="M0 0 C2.26103453 3.01471271 3.91485013 5.55931308 5.6015625 8.859375 C6.0872168 9.80224365 6.57287109 10.7451123 7.07324219 11.71655273 C7.58532227 12.71759033 8.09740234 13.71862793 8.625 14.75 C13.44091451 24.08791023 13.44091451 24.08791023 18.52001953 33.28393555 C18.92591309 33.99461182 19.33180664 34.70528809 19.75 35.4375 C20.22255219 36.26189072 20.22255219 36.26189072 20.70465088 37.10293579 C23.1933248 41.48055308 25.49962928 45.91826588 27.71875 50.4375 C31.91109959 58.89450031 36.31218039 67.23241059 40.75 75.5625 C42.34227463 78.55799485 43.93305064 81.55428378 45.5234375 84.55078125 C45.91161652 85.28187103 46.29979553 86.01296082 46.69973755 86.76620483 C49.95892147 92.90985714 53.17349978 99.0761037 56.375 105.25 C60.27178175 112.75434137 64.25653703 120.20547858 68.3125 127.625 C68.81217285 128.54047607 69.3118457 129.45595215 69.82666016 130.39916992 C71.96473756 134.30919597 74.11314902 138.21170937 76.30859375 142.08984375 C76.94925781 143.23582031 77.58992188 144.38179687 78.25 145.5625 C78.79140625 146.51253906 79.3328125 147.46257812 79.890625 148.44140625 C81.07988709 151.18424663 81.23519116 153.04407474 81 156 C72.63483982 157.17773035 64.30764398 157.14576202 55.87890625 157.1328125 C54.3271432 157.13348713 52.77538025 157.13445849 51.22361755 157.13571167 C47.99029523 157.13717806 44.75700071 157.13506628 41.52368164 157.13037109 C37.37528332 157.12464084 33.22694923 157.12798018 29.0785532 157.13394356 C25.88304658 157.13754936 22.68755533 157.13641108 19.49204826 157.13381577 C17.96139455 157.13314828 16.43073945 157.13396872 14.90008736 157.13629532 C12.77002351 157.13882575 10.64006568 157.13497727 8.51000977 157.12939453 C7.29805435 157.12859894 6.08609894 157.12780334 4.8374176 157.12698364 C2 157 2 157 0 156 C0 104.52 0 53.04 0 0 Z " fill="#53BFE5" transform="translate(172,69)"/>
</svg>
